<svg xmlns="http://www.w3.org/2000/svg" width="81.156" height="63.521" viewBox="0 0 81.156 63.521">
  <g id="Group_2" data-name="Group 2" transform="translate(-183.682 -117.719)">
    <path id="Path_1" data-name="Path 1" d="M537.253,167.9h-4.569l.032-1.139c4.307-1.353,4.482-4.646,4.482-4.646.515-5.6-7.516-4.8-7.516-4.8-11.523,1.76-8.585,11.689-8.585,11.689,2.24,8.89,16.179,7.743,16.179,7.743Zm-8.235-3.231c-.828.039-1.566-1.252-1.643-2.88s.52-2.984,1.351-3.044c.829-.028,1.563,1.262,1.644,2.9s-.521,2.983-1.352,3.024" transform="translate(-272.617 -31.993)" fill="#fff"/>
    <path id="Path_2" data-name="Path 2" d="M376.949,126a4.141,4.141,0,1,0-4.168-4.153A4.157,4.157,0,0,0,376.949,126" transform="translate(-152.936 0)" fill="#fff"/>
    <path id="Path_3" data-name="Path 3" d="M196.233,128.249A12.453,12.453,0,1,0,208.79,140.7a12.5,12.5,0,0,0-12.557-12.454M197.4,142.21a3.742,3.742,0,0,1-3.862.442s-3.329-1.374-3.728-6.171a5.644,5.644,0,0,1,3.644-6.035v9.189a2.4,2.4,0,0,1,3.26-.8s2.156,1.413.686,3.375" transform="translate(0 -8.516)" fill="#fff"/>
    <path id="Path_4" data-name="Path 4" d="M321.936,128.25l.012,24.989h8.3l-.018-24.989Z" transform="translate(-111.814 -8.517)" fill="#fff"/>
    <path id="Path_5" data-name="Path 5" d="M374.383,165.114l.105,17.939h8.17V165.114a7.916,7.916,0,0,1-8.275,0" transform="translate(-154.231 -38.331)" fill="#fff"/>
    <path id="Path_6" data-name="Path 6" d="M433.788,165.2s.912,4.033,5.475,3.017c0,0,.53,3.025-3.423,1.845-3.991-1.181-3.582-9.137-3.62-10.016H424.45s-1.9,19.751,17.139,18.845V160.088s-8.717-1.136-7.8,5.114" transform="translate(-194.681 -34.201)" fill="#fff"/>
    <path id="Path_7" data-name="Path 7" d="M282.572,371.24h.589v7.247h4.125v.524h-4.715Z" transform="translate(-79.978 -205.038)" fill="#fff"/>
    <path id="Path_8" data-name="Path 8" d="M311.846,371.24h.687v.688h-.687Zm.066,2.51h.557v5.26h-.557Z" transform="translate(-103.654 -205.038)" fill="#fff"/>
    <path id="Path_9" data-name="Path 9" d="M321.073,389.627l-1.921-5.26h.611l1.583,4.606,1.583-4.606h.611l-1.921,5.26Z" transform="translate(-109.563 -215.654)" fill="#fff"/>
    <path id="Path_10" data-name="Path 10" d="M346.233,384.08a1.866,1.866,0,0,1,1.539.677,2.827,2.827,0,0,1,.557,1.866v.251H345.61v-.447h2.161a3.308,3.308,0,0,0-.175-.982,1.372,1.372,0,0,0-.535-.644,1.546,1.546,0,0,0-.829-.229,1.526,1.526,0,0,0-.819.229,1.373,1.373,0,0,0-.535.644,3.21,3.21,0,0,0-.164.786l.011,1.1a1.567,1.567,0,0,0,1.67,1.6,1.961,1.961,0,0,0,1.441-.633l.415.328a2.58,2.58,0,0,1-1.888.8,2.03,2.03,0,0,1-1.648-.677,3.069,3.069,0,0,1-.567-2,3.127,3.127,0,0,1,.556-1.975,1.828,1.828,0,0,1,1.528-.7" transform="translate(-129.779 -215.422)" fill="#fff"/>
    <path id="Path_11" data-name="Path 11" d="M436.648,378.769a2.6,2.6,0,0,1-1.441-.742,2.272,2.272,0,0,1-.622-1.19,19.5,19.5,0,0,1,0-3.907,2.214,2.214,0,0,1,.622-1.179,2.74,2.74,0,0,1,3.863,0,2.216,2.216,0,0,1,.622,1.179,21.883,21.883,0,0,1,0,3.907,2.274,2.274,0,0,1-.622,1.19,2.627,2.627,0,0,1-1.517.753v-.524a1.991,1.991,0,0,0,1.048-.557,1.826,1.826,0,0,0,.5-.993,11.019,11.019,0,0,0,.1-1.823,10.8,10.8,0,0,0-.1-1.812,1.832,1.832,0,0,0-.5-1,2.122,2.122,0,0,0-2.936,0,1.835,1.835,0,0,0-.5,1,12.133,12.133,0,0,0-.087,1.812,12.377,12.377,0,0,0,.087,1.823,1.829,1.829,0,0,0,.5.993,2.041,2.041,0,0,0,.982.535Z" transform="translate(-202.841 -204.807)" fill="#fff"/>
    <path id="Path_12" data-name="Path 12" d="M471.249,379.011q-1.266,0-1.266-1.364V371.24h.556v6.4a1,1,0,0,0,.174.666.792.792,0,0,0,.633.218h.383v.491Z" transform="translate(-231.549 -205.038)" fill="#fff"/>
    <path id="Path_13" data-name="Path 13" d="M483.849,371.24h.688v.688h-.687Zm.066,2.51h.557v5.26h-.557Z" transform="translate(-242.763 -205.038)" fill="#fff"/>
    <path id="Path_14" data-name="Path 14" d="M493.073,389.627l-1.921-5.26h.611l1.583,4.606,1.583-4.606h.611l-1.921,5.26Z" transform="translate(-248.67 -215.654)" fill="#fff"/>
    <path id="Path_15" data-name="Path 15" d="M518.236,384.08a1.865,1.865,0,0,1,1.539.677,2.827,2.827,0,0,1,.557,1.866v.251h-2.718v-.447h2.161a3.305,3.305,0,0,0-.175-.982,1.372,1.372,0,0,0-.534-.644,1.546,1.546,0,0,0-.829-.229,1.526,1.526,0,0,0-.819.229,1.373,1.373,0,0,0-.535.644,3.218,3.218,0,0,0-.164.786l.011,1.1a1.567,1.567,0,0,0,1.67,1.6,1.961,1.961,0,0,0,1.441-.633l.415.328a2.58,2.58,0,0,1-1.888.8,2.03,2.03,0,0,1-1.648-.677,3.069,3.069,0,0,1-.567-2,3.127,3.127,0,0,1,.557-1.975,1.828,1.828,0,0,1,1.528-.7" transform="translate(-268.888 -215.422)" fill="#fff"/>
    <path id="Path_16" data-name="Path 16" d="M383.238,381.1a1.287,1.287,0,0,0,1.226,1.43,1.784,1.784,0,0,0,1.6-1h.045a.84.84,0,0,0,.84,1c1.067,0,2.02-1,2.02-2.7a3.152,3.152,0,0,0-3.3-3.28,4.151,4.151,0,0,0-4.142,4.358,3.378,3.378,0,0,0,3.439,3.541,4.136,4.136,0,0,0,2.02-.454l-.182-.488a3.54,3.54,0,0,1-1.714.4,2.835,2.835,0,0,1-2.917-3.064,3.484,3.484,0,0,1,3.4-3.768,2.6,2.6,0,0,1,2.747,2.826c0,1.317-.647,2.088-1.226,2.077-.375-.012-.511-.409-.341-1.271l.118-.628-.672-.142-.082.441c-.125.7-.727,1.544-1.385,1.544-.5,0-.749-.363-.749-.862a1.946,1.946,0,0,1,1.8-2.043,3.352,3.352,0,0,1,1.24.225l.11-.588a2.992,2.992,0,0,0-1.214-.238,2.68,2.68,0,0,0-2.69,2.69" transform="translate(-160.007 -209.329)" fill="#fff"/>
    <path id="Path_17" data-name="Path 17" d="M217.644,291.643h-1.77V279.96h4.539a3.693,3.693,0,0,1,2.589.868,2.968,2.968,0,0,1,.951,2.327,2.737,2.737,0,0,1-.492,1.606,2.354,2.354,0,0,1-1.081.868,2.67,2.67,0,0,1,1.753,2.72,3.114,3.114,0,0,1-1,2.458,3.67,3.67,0,0,1-2.54.836h-1.606l-.016-1.589h1.458a1.962,1.962,0,0,0,1.426-.508,1.7,1.7,0,0,0,.508-1.278,1.667,1.667,0,0,0-.508-1.278,1.965,1.965,0,0,0-1.426-.492h-1.458v-1.606h1.295a2.074,2.074,0,0,0,1.377-.426,1.52,1.52,0,0,0,.541-1.245,1.549,1.549,0,0,0-.541-1.245,2.074,2.074,0,0,0-1.377-.426h-2.622Z" transform="translate(-26.036 -131.214)" fill="#fff"/>
    <path id="Path_18" data-name="Path 18" d="M280.284,287.78a3.809,3.809,0,0,1-1.212,2.917,4.549,4.549,0,0,1-5.965,0,3.834,3.834,0,0,1-1.2-2.917v-7.735h1.77V287.7a2.573,2.573,0,0,0,.656,1.852,2.624,2.624,0,0,0,3.507,0,2.538,2.538,0,0,0,.672-1.852v-7.653h1.77Z" transform="translate(-71.356 -131.283)" fill="#fff"/>
    <rect id="Rectangle_1" data-name="Rectangle 1" width="1.77" height="11.667" transform="translate(211.796 148.762)" fill="#fff"/>
    <path id="Path_19" data-name="Path 19" d="M355.882,291.713V280.045h1.77v10.078h5.621v1.589Z" transform="translate(-139.268 -131.283)" fill="#fff"/>
    <path id="Path_20" data-name="Path 20" d="M406.919,291.782h-1.77V280.131h4.1a4.052,4.052,0,0,1,3,1.1,3.909,3.909,0,0,1,1.065,2.163,17.647,17.647,0,0,1,.115,2.491,18.786,18.786,0,0,1-.115,2.556,3.911,3.911,0,0,1-1.065,2.245,4.052,4.052,0,0,1-3,1.1h-1v-1.589h.819a2.5,2.5,0,0,0,1.966-.787q.623-.688.623-3.523,0-2.687-.623-3.376a2.5,2.5,0,0,0-1.966-.787h-2.147Z" transform="translate(-179.114 -131.352)" fill="#fff"/>
    <path id="Path_21" data-name="Path 21" d="M462.129,291.713V280.045h7.456v1.589H463.9v3.409h4.85v1.573H463.9v3.507h5.686v1.589Z" transform="translate(-225.197 -131.283)" fill="#fff"/>
    <path id="Path_22" data-name="Path 22" d="M517.779,285.375a2.861,2.861,0,0,0,1.639-.475,1.58,1.58,0,0,0,.754-1.344,1.7,1.7,0,0,0-.557-1.344,2.037,2.037,0,0,0-1.426-.491h-2.622v10.094H513.8V280.132h4.523a3.633,3.633,0,0,1,2.638.967,3.213,3.213,0,0,1,.983,2.441,3.083,3.083,0,0,1-2.327,3.113l2.687,5.162h-2.065l-2.458-4.916Z" transform="translate(-266.984 -131.353)" fill="#fff"/>
    <path id="Path_23" data-name="Path 23" d="M571.667,290.495a4.741,4.741,0,0,1-3.015.9,5.547,5.547,0,0,1-4.129-1.54l1.18-1.164a4.03,4.03,0,0,0,2.982,1.114q2.409,0,2.409-1.786a1.542,1.542,0,0,0-.459-1.213,2.411,2.411,0,0,0-1.278-.491l-1.376-.2a3.935,3.935,0,0,1-2.212-.934,2.913,2.913,0,0,1-.852-2.228,3.153,3.153,0,0,1,1.049-2.475,4.087,4.087,0,0,1,2.851-.95,5.1,5.1,0,0,1,3.622,1.327l-1.131,1.114a3.541,3.541,0,0,0-2.54-.9,2.244,2.244,0,0,0-1.573.524,1.644,1.644,0,0,0-.557,1.294,1.372,1.372,0,0,0,.443,1.082,2.5,2.5,0,0,0,1.311.541l1.327.2a4.246,4.246,0,0,1,2.18.869,3.016,3.016,0,0,1,.95,2.393,3.05,3.05,0,0,1-1.18,2.523" transform="translate(-308.008 -130.868)" fill="#fff"/>
    <rect id="Rectangle_2" data-name="Rectangle 2" width="10.821" height="0.361" transform="translate(202.62 180.072)" fill="#fff"/>
    <path id="Path_24" data-name="Path 24" d="M349.157,437.473a1.148,1.148,0,0,1-.73.218,1.342,1.342,0,0,1-1-.373l.285-.281a.975.975,0,0,0,.722.269q.583,0,.583-.432a.372.372,0,0,0-.111-.293.582.582,0,0,0-.309-.119l-.333-.048a.952.952,0,0,1-.535-.226.705.705,0,0,1-.206-.539.762.762,0,0,1,.254-.6.988.988,0,0,1,.69-.23,1.236,1.236,0,0,1,.876.321l-.274.269a.855.855,0,0,0-.614-.218.543.543,0,0,0-.381.127.4.4,0,0,0-.135.313.333.333,0,0,0,.107.262.606.606,0,0,0,.317.131l.321.048a1.025,1.025,0,0,1,.527.21.729.729,0,0,1,.23.579.739.739,0,0,1-.285.611" transform="translate(-132.431 -256.459)" fill="#fff"/>
    <rect id="Rectangle_3" data-name="Rectangle 3" width="0.428" height="2.823" transform="translate(218.062 178.385)" fill="#fff"/>
    <path id="Path_25" data-name="Path 25" d="M373.773,437.768l-1.3-1.987v1.987h-.428v-2.823h.393l1.3,1.982v-1.982h.428v2.823Z" transform="translate(-152.336 -256.56)" fill="#fff"/>
    <path id="Path_26" data-name="Path 26" d="M390.981,436.821a1.045,1.045,0,0,1-.349.646.99.99,0,0,1-.658.222,1.01,1.01,0,0,1-.742-.3.868.868,0,0,1-.242-.468,7.048,7.048,0,0,1,0-1.332.87.87,0,0,1,.242-.468,1.009,1.009,0,0,1,.742-.3,1,1,0,0,1,.662.222,1.038,1.038,0,0,1,.345.647h-.436a.548.548,0,0,0-.571-.484.542.542,0,0,0-.417.171,2.356,2.356,0,0,0,0,1.76.542.542,0,0,0,.417.171.551.551,0,0,0,.575-.484Z" transform="translate(-166.02 -256.458)" fill="#fff"/>
    <path id="Path_27" data-name="Path 27" d="M405.007,437.768v-2.823h1.8v.384h-1.376v.825h1.174v.381h-1.174v.849h1.376v.385Z" transform="translate(-178.999 -256.56)" fill="#fff"/>
    <path id="Path_28" data-name="Path 28" d="M428.448,437.768v-2.383l-.551.484v-.448l.551-.476h.4v2.823Z" transform="translate(-197.511 -256.56)" fill="#fff"/>
    <path id="Path_29" data-name="Path 29" d="M441.183,436.51l.246-.488a.54.54,0,0,0,.087-.313.52.52,0,0,0-.119-.357.4.4,0,0,0-.313-.131.385.385,0,0,0-.305.131.52.52,0,0,0-.119.357.551.551,0,0,0,.084.309.382.382,0,0,0,.238.166l-.167.325a.691.691,0,0,1-.4-.266.869.869,0,0,1-.159-.528.85.85,0,0,1,.234-.622.8.8,0,0,1,.595-.234.79.79,0,0,1,.837.841,1.642,1.642,0,0,1-.21.694l-.642,1.3h-.444Z" transform="translate(-207.506 -256.492)" fill="#fff"/>
    <path id="Path_30" data-name="Path 30" d="M455.2,436.475a.717.717,0,0,1,.135.432.774.774,0,0,1-.258.607.987.987,0,0,1-1.237,0,.779.779,0,0,1-.254-.607.733.733,0,0,1,.389-.662.675.675,0,0,1-.341-.611.753.753,0,0,1,.182-.512.765.765,0,0,1,.456-.254v.385a.4.4,0,0,0-.234.392.419.419,0,0,0,.119.309.4.4,0,0,0,.3.119.413.413,0,0,0,.305-.119.435.435,0,0,0,.115-.309.39.39,0,0,0-.273-.408v-.377a.786.786,0,0,1,.488.25.75.75,0,0,1,.194.523.674.674,0,0,1-.345.611h0l-.317.214a.5.5,0,0,0-.171-.032.446.446,0,0,0-.333.139.479.479,0,0,0,0,.666.469.469,0,0,0,.666,0,.46.46,0,0,0,.131-.333.469.469,0,0,0-.048-.206Z" transform="translate(-218.288 -256.492)" fill="#fff"/>
    <path id="Path_31" data-name="Path 31" d="M468.5,437.471a1.016,1.016,0,0,1-1.205.016.765.765,0,0,1-.27-.6h.4a.431.431,0,0,0,.147.325.471.471,0,0,0,.313.1.454.454,0,0,0,.329-.123.459.459,0,0,0,.131-.345.414.414,0,0,0-.472-.464h-.067v-.353h.067a.378.378,0,0,0,.428-.428.432.432,0,0,0-.123-.325.406.406,0,0,0-.294-.111.385.385,0,0,0-.424.4h-.4a.764.764,0,0,1,.254-.563.907.907,0,0,1,1.166.012.759.759,0,0,1,.23.571.617.617,0,0,1-.353.6.659.659,0,0,1,.4.666.775.775,0,0,1-.254.615" transform="translate(-229.155 -256.441)" fill="#fff"/>
    <rect id="Rectangle_4" data-name="Rectangle 4" width="9.831" height="0.361" transform="translate(241.586 180.072)" fill="#fff"/>
  </g>
</svg>
